<svg width="144" height="144" viewBox="0 0 144 144" fill="none" xmlns="http://www.w3.org/2000/svg">
<path d="M43.2001 105.6C53.8039 105.6 62.4001 97.0039 62.4001 86.4001C62.4001 75.7962 53.8039 67.2001 43.2001 67.2001C32.5962 67.2001 24.0001 75.7962 24.0001 86.4001C24.0001 97.0039 32.5962 105.6 43.2001 105.6Z" fill="white"/>
<path d="M88.8002 120C95.4276 120 100.8 114.627 100.8 108C100.8 101.373 95.4276 95.9999 88.8002 95.9999C82.1728 95.9999 76.8002 101.373 76.8002 108C76.8002 114.627 82.1728 120 88.8002 120Z" fill="white"/>
<path d="M91.2002 81.5999C107.106 81.5999 120 68.7057 120 52.7999C120 36.8941 107.106 23.9999 91.2002 23.9999C75.2944 23.9999 62.4002 36.8941 62.4002 52.7999C62.4002 68.7057 75.2944 81.5999 91.2002 81.5999Z" fill="white"/>
</svg>
