<svg width="40" height="40" viewBox="0 0 40 40" fill="none" xmlns="http://www.w3.org/2000/svg">
<path d="M20 3.33334C10.8 3.33334 3.33337 10.8 3.33337 20C3.33337 29.2 10.8 36.6667 20 36.6667H28.3334V33.3333H20C12.7667 33.3333 6.66671 27.2333 6.66671 20C6.66671 12.7667 12.7667 6.66668 20 6.66668C27.2334 6.66668 33.3334 12.7667 33.3334 20V22.3833C33.3334 23.7 32.15 25 30.8334 25C29.5167 25 28.3334 23.7 28.3334 22.3833V20C28.3334 15.4 24.6 11.6667 20 11.6667C15.4 11.6667 11.6667 15.4 11.6667 20C11.6667 24.6 15.4 28.3333 20 28.3333C22.3 28.3333 24.4 27.4 25.9 25.8833C26.9834 27.3667 28.85 28.3333 30.8334 28.3333C34.1167 28.3333 36.6667 25.6667 36.6667 22.3833V20C36.6667 10.8 29.2 3.33334 20 3.33334ZM20 25C17.2334 25 15 22.7667 15 20C15 17.2333 17.2334 15 20 15C22.7667 15 25 17.2333 25 20C25 22.7667 22.7667 25 20 25Z" fill="#32025B"/>
</svg>
