<svg width="28" height="36" viewBox="0 0 28 36" fill="none" xmlns="http://www.w3.org/2000/svg">
<path d="M24 12.3333H22.3333V9.00001C22.3333 4.40001 18.6 0.666672 14 0.666672C9.39996 0.666672 5.66663 4.40001 5.66663 9.00001V12.3333H3.99996C2.16663 12.3333 0.666626 13.8333 0.666626 15.6667V32.3333C0.666626 34.1667 2.16663 35.6667 3.99996 35.6667H24C25.8333 35.6667 27.3333 34.1667 27.3333 32.3333V15.6667C27.3333 13.8333 25.8333 12.3333 24 12.3333ZM14 27.3333C12.1666 27.3333 10.6666 25.8333 10.6666 24C10.6666 22.1667 12.1666 20.6667 14 20.6667C15.8333 20.6667 17.3333 22.1667 17.3333 24C17.3333 25.8333 15.8333 27.3333 14 27.3333ZM19.1666 12.3333H8.83329V9.00001C8.83329 6.15001 11.15 3.83334 14 3.83334C16.85 3.83334 19.1666 6.15001 19.1666 9.00001V12.3333Z" fill="#440D73"/>
</svg>
