<svg width="52" height="45" viewBox="0 0 52 45" fill="none" xmlns="http://www.w3.org/2000/svg">
<path fill-rule="evenodd" clip-rule="evenodd" d="M16.3636 35.4546L24.5455 27.4364C23.4818 27.3273 22.6909 27.2727 21.8182 27.2727C14.5364 27.2727 0 30.9273 0 38.1818V43.6364H24.5455L16.3636 35.4546ZM21.8182 21.8182C27.8455 21.8182 32.7273 16.9364 32.7273 10.9091C32.7273 4.88182 27.8455 0 21.8182 0C15.7909 0 10.9091 4.88182 10.9091 10.9091C10.9091 16.9364 15.7909 21.8182 21.8182 21.8182Z" fill="#7B2CBF"/>
<path fill-rule="evenodd" clip-rule="evenodd" d="M34.0073 45L24.5437 35.4546L28.3619 31.6091L34.0073 37.2818L47.9983 23.1818L51.8165 27.0273L34.0073 45Z" fill="#7B2CBF"/>
</svg>
