<svg width="34" height="33" viewBox="0 0 34 33" fill="none" xmlns="http://www.w3.org/2000/svg">
<path d="M17 0C7.616 0 0 7.29795 0 16.2901C0 25.2822 7.616 32.5801 17 32.5801C26.384 32.5801 34 25.2822 34 16.2901C34 7.29795 26.384 0 17 0ZM17 4.88702C19.822 4.88702 22.1 7.06989 22.1 9.77404C22.1 12.4782 19.822 14.6611 17 14.6611C14.178 14.6611 11.9 12.4782 11.9 9.77404C11.9 7.06989 14.178 4.88702 17 4.88702ZM17 28.0189C12.75 28.0189 8.993 25.9338 6.8 22.7735C6.851 19.5318 13.6 17.7562 17 17.7562C20.383 17.7562 27.149 19.5318 27.2 22.7735C25.007 25.9338 21.25 28.0189 17 28.0189Z" fill="white"/>
</svg>
